<svg width="900" height="680" viewBox="0 0 900 680" fill="none" xmlns="http://www.w3.org/2000/svg">
  <rect width="900" height="680" rx="32" fill="#F4F2ED"/>
  <rect x="40" y="40" width="820" height="600" rx="28" fill="#111216"/>
  <rect x="84" y="84" width="732" height="56" rx="18" fill="#1B1D24"/>
  <circle cx="120" cy="112" r="8" fill="#2A67FF"/>
  <circle cx="148" cy="112" r="8" fill="#FFFFFF" fill-opacity="0.2"/>
  <circle cx="176" cy="112" r="8" fill="#FFFFFF" fill-opacity="0.12"/>
  <rect x="84" y="170" width="188" height="426" rx="24" fill="#171921"/>
  <rect x="300" y="170" width="516" height="182" rx="24" fill="#171921"/>
  <rect x="300" y="380" width="246" height="216" rx="24" fill="#171921"/>
  <rect x="570" y="380" width="246" height="216" rx="24" fill="#171921"/>
  <rect x="108" y="208" width="104" height="12" rx="6" fill="#FFFFFF" fill-opacity="0.16"/>
  <rect x="108" y="236" width="132" height="12" rx="6" fill="#2A67FF" fill-opacity="0.78"/>
  <rect x="108" y="288" width="140" height="12" rx="6" fill="#FFFFFF" fill-opacity="0.12"/>
  <rect x="108" y="316" width="108" height="12" rx="6" fill="#FFFFFF" fill-opacity="0.12"/>
  <rect x="108" y="344" width="124" height="12" rx="6" fill="#FFFFFF" fill-opacity="0.12"/>
  <path d="M344 281C386.333 245.667 428.667 228 471 228C513.333 228 555.667 248.667 598 290C640.333 331.333 682.667 350.667 725 348" stroke="#2A67FF" stroke-width="6" stroke-linecap="round"/>
  <circle cx="472" cy="228" r="10" fill="#2A67FF"/>
  <circle cx="726" cy="348" r="10" fill="#EAE7DF"/>
  <rect x="328" y="206" width="118" height="16" rx="8" fill="#FFFFFF" fill-opacity="0.15"/>
  <rect x="328" y="402" width="112" height="16" rx="8" fill="#FFFFFF" fill-opacity="0.15"/>
  <rect x="328" y="438" width="190" height="18" rx="9" fill="#2A67FF" fill-opacity="0.72"/>
  <rect x="328" y="474" width="160" height="12" rx="6" fill="#FFFFFF" fill-opacity="0.12"/>
  <rect x="598" y="438" width="84" height="84" rx="20" fill="#2A67FF" fill-opacity="0.18"/>
  <rect x="698" y="438" width="84" height="84" rx="20" fill="#FFFFFF" fill-opacity="0.08"/>
  <rect x="598" y="538" width="184" height="12" rx="6" fill="#FFFFFF" fill-opacity="0.12"/>
</svg>
